name rise35.5848peak51.9257fall54.8793.mot
datacolumns 19
datarows 33
range 13.39660800000000 13.44994100000000
endheader
time	ground_force1_vx	ground_force1_vy	ground_force1_vz	ground_force1_px	ground_force1_py	ground_force1_pz	ground_force2_vx	ground_force2_vy	ground_force2_vz	ground_force2_px	ground_force2_py	ground_force2_pz	ground_torque1_x	ground_torque1_y	ground_torque1_z	ground_torque2_x	ground_torque2_y	ground_torque2_z	
13.39660800000000	3.73173500000000	715.09856900000000	42.53752800000000	0.18237500000000	0.00000000000000	0.12223900000000	0.00000000000000	0.00000000000000	0.00000000000000	0.00000000000000	0.00000000000000	0.00000000000000	0.00000000000000	14.75113600000000	0.00000000000000	0.00000000000000	0.00000000000000	0.00000000000000	
13.39827400000000	3.36029500000000	716.10251000000005	42.52555900000000	0.18140100000000	0.00000000000000	0.12224700000000	0.00000000000000	0.00000000000000	0.00000000000000	0.00000000000000	0.00000000000000	0.00000000000000	0.00000000000000	14.78024200000000	0.00000000000000	0.00000000000000	0.00000000000000	0.00000000000000	
13.39994900000000	2.97742000000000	717.11585300000002	42.51766700000000	0.18040400000000	0.00000000000000	0.12225700000000	0.00000000000000	0.00000000000000	0.00000000000000	0.00000000000000	0.00000000000000	0.00000000000000	0.00000000000000	14.81283900000000	0.00000000000000	0.00000000000000	0.00000000000000	0.00000000000000	
13.40161100000000	2.58308000000000	718.13766699999996	42.51367800000000	0.17938500000000	0.00000000000000	0.12226900000000	0.00000000000000	0.00000000000000	0.00000000000000	0.00000000000000	0.00000000000000	0.00000000000000	0.00000000000000	14.84892100000000	0.00000000000000	0.00000000000000	0.00000000000000	0.00000000000000	
13.40328100000000	2.17729000000000	719.16712399999994	42.51342500000000	0.17834600000000	0.00000000000000	0.12228200000000	0.00000000000000	0.00000000000000	0.00000000000000	0.00000000000000	0.00000000000000	0.00000000000000	0.00000000000000	14.88848000000000	0.00000000000000	0.00000000000000	0.00000000000000	0.00000000000000	
13.40494200000000	1.76010300000000	720.20350599999995	42.51674600000000	0.17728800000000	0.00000000000000	0.12229700000000	0.00000000000000	0.00000000000000	0.00000000000000	0.00000000000000	0.00000000000000	0.00000000000000	0.00000000000000	14.93150600000000	0.00000000000000	0.00000000000000	0.00000000000000	0.00000000000000	
13.40661400000000	1.33161400000000	721.24619700000005	42.52348700000000	0.17621300000000	0.00000000000000	0.12231300000000	0.00000000000000	0.00000000000000	0.00000000000000	0.00000000000000	0.00000000000000	0.00000000000000	0.00000000000000	14.97798500000000	0.00000000000000	0.00000000000000	0.00000000000000	0.00000000000000	
13.40827800000000	0.89195300000000	722.29468799999995	42.53350200000000	0.17512300000000	0.00000000000000	0.12233100000000	0.00000000000000	0.00000000000000	0.00000000000000	0.00000000000000	0.00000000000000	0.00000000000000	0.00000000000000	15.02789900000000	0.00000000000000	0.00000000000000	0.00000000000000	0.00000000000000	
13.40994000000000	0.44128900000000	723.34857399999999	42.54665200000000	0.17402000000000	0.00000000000000	0.12234900000000	0.00000000000000	0.00000000000000	0.00000000000000	0.00000000000000	0.00000000000000	0.00000000000000	0.00000000000000	15.08122900000000	0.00000000000000	0.00000000000000	0.00000000000000	0.00000000000000	
13.41160800000000	-0.02017900000000	724.40754800000002	42.56280800000000	0.17290500000000	0.00000000000000	0.12236900000000	0.00000000000000	0.00000000000000	0.00000000000000	0.00000000000000	0.00000000000000	0.00000000000000	0.00000000000000	15.13795000000000	0.00000000000000	0.00000000000000	0.00000000000000	0.00000000000000	
13.41330500000000	-0.49221600000000	725.47140400000001	42.58185000000000	0.17178000000000	0.00000000000000	0.12239000000000	0.00000000000000	0.00000000000000	0.00000000000000	0.00000000000000	0.00000000000000	0.00000000000000	0.00000000000000	15.19803500000000	0.00000000000000	0.00000000000000	0.00000000000000	0.00000000000000	
13.41494100000000	-0.97455900000000	726.54003000000000	42.60366600000000	0.17064700000000	0.00000000000000	0.12241100000000	0.00000000000000	0.00000000000000	0.00000000000000	0.00000000000000	0.00000000000000	0.00000000000000	0.00000000000000	15.26145000000000	0.00000000000000	0.00000000000000	0.00000000000000	0.00000000000000	
13.41661400000000	-1.46691400000000	727.61340299999995	42.62815600000000	0.16950800000000	0.00000000000000	0.12243300000000	0.00000000000000	0.00000000000000	0.00000000000000	0.00000000000000	0.00000000000000	0.00000000000000	0.00000000000000	15.32816000000000	0.00000000000000	0.00000000000000	0.00000000000000	0.00000000000000	
13.41827700000000	-1.96896400000000	728.69158900000002	42.65522700000000	0.16836500000000	0.00000000000000	0.12245600000000	0.00000000000000	0.00000000000000	0.00000000000000	0.00000000000000	0.00000000000000	0.00000000000000	0.00000000000000	15.39812400000000	0.00000000000000	0.00000000000000	0.00000000000000	0.00000000000000	
13.41994800000000	-2.48036700000000	729.77473799999996	42.68479800000000	0.16722000000000	0.00000000000000	0.12247900000000	0.00000000000000	0.00000000000000	0.00000000000000	0.00000000000000	0.00000000000000	0.00000000000000	0.00000000000000	15.47129400000000	0.00000000000000	0.00000000000000	0.00000000000000	0.00000000000000	
13.42161200000000	-3.00075900000000	730.86307299999999	42.71679900000000	0.16607400000000	0.00000000000000	0.12250200000000	0.00000000000000	0.00000000000000	0.00000000000000	0.00000000000000	0.00000000000000	0.00000000000000	0.00000000000000	15.54762100000000	0.00000000000000	0.00000000000000	0.00000000000000	0.00000000000000	
13.42327800000000	-3.52975500000000	731.95689000000004	42.75117000000000	0.16493000000000	0.00000000000000	0.12252600000000	0.00000000000000	0.00000000000000	0.00000000000000	0.00000000000000	0.00000000000000	0.00000000000000	0.00000000000000	15.62704700000000	0.00000000000000	0.00000000000000	0.00000000000000	0.00000000000000	
13.42494400000000	-4.06695600000000	733.05655300000001	42.78786000000000	0.16378800000000	0.00000000000000	0.12255000000000	0.00000000000000	0.00000000000000	0.00000000000000	0.00000000000000	0.00000000000000	0.00000000000000	0.00000000000000	15.70951100000000	0.00000000000000	0.00000000000000	0.00000000000000	0.00000000000000	
13.42660700000000	-4.61194400000000	734.16248099999996	42.82683200000000	0.16265200000000	0.00000000000000	0.12257300000000	0.00000000000000	0.00000000000000	0.00000000000000	0.00000000000000	0.00000000000000	0.00000000000000	0.00000000000000	15.79494500000000	0.00000000000000	0.00000000000000	0.00000000000000	0.00000000000000	
13.42828100000000	-5.16429100000000	735.27514900000006	42.86805700000000	0.16152200000000	0.00000000000000	0.12259700000000	0.00000000000000	0.00000000000000	0.00000000000000	0.00000000000000	0.00000000000000	0.00000000000000	0.00000000000000	15.88327700000000	0.00000000000000	0.00000000000000	0.00000000000000	0.00000000000000	
13.42994000000000	-5.72355800000000	736.39507600000002	42.91151800000000	0.16040000000000	0.00000000000000	0.12262100000000	0.00000000000000	0.00000000000000	0.00000000000000	0.00000000000000	0.00000000000000	0.00000000000000	0.00000000000000	15.97442700000000	0.00000000000000	0.00000000000000	0.00000000000000	0.00000000000000	
13.43161200000000	-6.28929500000000	737.52281900000003	42.95721100000000	0.15928700000000	0.00000000000000	0.12264400000000	0.00000000000000	0.00000000000000	0.00000000000000	0.00000000000000	0.00000000000000	0.00000000000000	0.00000000000000	16.06831300000000	0.00000000000000	0.00000000000000	0.00000000000000	0.00000000000000	
13.43328000000000	-6.86104700000000	738.65896799999996	43.00514100000000	0.15818500000000	0.00000000000000	0.12266700000000	0.00000000000000	0.00000000000000	0.00000000000000	0.00000000000000	0.00000000000000	0.00000000000000	0.00000000000000	16.16484300000000	0.00000000000000	0.00000000000000	0.00000000000000	0.00000000000000	
13.43494600000000	-7.43835500000000	739.80413399999998	43.05532400000000	0.15709500000000	0.00000000000000	0.12269000000000	0.00000000000000	0.00000000000000	0.00000000000000	0.00000000000000	0.00000000000000	0.00000000000000	0.00000000000000	16.26392100000000	0.00000000000000	0.00000000000000	0.00000000000000	0.00000000000000	
13.43660800000000	-8.02075400000000	740.95894599999997	43.10778700000000	0.15601700000000	0.00000000000000	0.12271200000000	0.00000000000000	0.00000000000000	0.00000000000000	0.00000000000000	0.00000000000000	0.00000000000000	0.00000000000000	16.36544700000000	0.00000000000000	0.00000000000000	0.00000000000000	0.00000000000000	
13.43828100000000	-8.60778200000000	742.12404000000004	43.16256900000000	0.15495300000000	0.00000000000000	0.12273400000000	0.00000000000000	0.00000000000000	0.00000000000000	0.00000000000000	0.00000000000000	0.00000000000000	0.00000000000000	16.46931200000000	0.00000000000000	0.00000000000000	0.00000000000000	0.00000000000000	
13.43994100000000	-9.19897600000000	743.30005200000005	43.21971700000000	0.15390400000000	0.00000000000000	0.12275600000000	0.00000000000000	0.00000000000000	0.00000000000000	0.00000000000000	0.00000000000000	0.00000000000000	0.00000000000000	16.57540400000000	0.00000000000000	0.00000000000000	0.00000000000000	0.00000000000000	
13.44161200000000	-9.79387300000000	744.48761000000002	43.27929200000000	0.15287000000000	0.00000000000000	0.12277700000000	0.00000000000000	0.00000000000000	0.00000000000000	0.00000000000000	0.00000000000000	0.00000000000000	0.00000000000000	16.68360400000000	0.00000000000000	0.00000000000000	0.00000000000000	0.00000000000000	
13.44327700000000	-10.39201700000000	745.68732799999998	43.34136100000000	0.15185100000000	0.00000000000000	0.12279700000000	0.00000000000000	0.00000000000000	0.00000000000000	0.00000000000000	0.00000000000000	0.00000000000000	0.00000000000000	16.79378900000000	0.00000000000000	0.00000000000000	0.00000000000000	0.00000000000000	
13.44494300000000	-10.99295400000000	746.89979600000004	43.40600400000000	0.15084900000000	0.00000000000000	0.12281700000000	0.00000000000000	0.00000000000000	0.00000000000000	0.00000000000000	0.00000000000000	0.00000000000000	0.00000000000000	16.90582900000000	0.00000000000000	0.00000000000000	0.00000000000000	0.00000000000000	
13.44661100000000	-11.59623900000000	748.12557100000004	43.47331000000000	0.14986400000000	0.00000000000000	0.12283600000000	0.00000000000000	0.00000000000000	0.00000000000000	0.00000000000000	0.00000000000000	0.00000000000000	0.00000000000000	17.01959100000000	0.00000000000000	0.00000000000000	0.00000000000000	0.00000000000000	
13.44828200000000	-12.20143200000000	749.36517500000002	43.54337300000000	0.14889500000000	0.00000000000000	0.12285500000000	0.00000000000000	0.00000000000000	0.00000000000000	0.00000000000000	0.00000000000000	0.00000000000000	0.00000000000000	17.13493500000000	0.00000000000000	0.00000000000000	0.00000000000000	0.00000000000000	
13.44994100000000	-12.80810100000000	750.61908100000005	43.61630100000000	0.14794200000000	0.00000000000000	0.12287300000000	0.00000000000000	0.00000000000000	0.00000000000000	0.00000000000000	0.00000000000000	0.00000000000000	0.00000000000000	17.25171700000000	0.00000000000000	0.00000000000000	0.00000000000000	0.00000000000000	
